<?xml version="1.0" standalone="no"?>
<!DOCTYPE svg PUBLIC "-//W3C//DTD SVG 20010904//EN"
 "http://www.w3.org/TR/2001/REC-SVG-20010904/DTD/svg10.dtd">
<svg version="1.0" xmlns="http://www.w3.org/2000/svg"
 width="16.000000pt" height="16.000000pt" viewBox="0 0 16.000000 16.000000"
 preserveAspectRatio="xMidYMid meet">

<g transform="translate(0.000000,16.000000) scale(0.100000,-0.100000)"
fill="#000000" stroke="none">
<path d="M43 148 c-28 -14 -49 -62 -37 -88 8 -17 12 -18 34 -6 14 7 24 18 22
25 -5 24 17 49 39 44 16 -4 17 -8 7 -14 -10 -7 -10 -9 0 -9 20 0 14 -21 -8
-27 -11 -3 -17 -9 -14 -14 3 -5 9 -7 14 -4 5 3 18 1 29 -4 15 -9 20 -7 24 10
8 31 -11 75 -39 88 -30 13 -42 13 -71 -1z"/>
</g>
</svg>
