<?xml version="1.0" standalone="no"?>
<!DOCTYPE svg PUBLIC "-//W3C//DTD SVG 20010904//EN"
 "http://www.w3.org/TR/2001/REC-SVG-20010904/DTD/svg10.dtd">
<svg version="1.0" xmlns="http://www.w3.org/2000/svg"
 width="32.000000pt" height="32.000000pt" viewBox="0 0 32.000000 32.000000"
 preserveAspectRatio="xMidYMid meet">

<g transform="translate(0.000000,32.000000) scale(0.100000,-0.100000)"
fill="#000000" stroke="none">
<path d="M94 301 c-69 -31 -107 -116 -84 -185 6 -20 13 -36 15 -36 11 0 83 35
98 48 16 14 16 16 1 34 -15 16 -15 20 -2 36 8 9 18 25 21 35 4 12 17 17 41 17
40 0 43 -3 52 -56 5 -36 3 -41 -21 -52 -14 -7 -35 -12 -46 -12 -11 0 -17 -5
-14 -10 4 -6 21 -10 38 -8 18 1 48 -6 66 -15 19 -9 35 -17 37 -17 2 0 8 17 13
38 20 75 -15 152 -82 183 -53 23 -81 23 -133 0z m111 -10 c15 -7 11 -9 -19 -9
-26 0 -34 3 -25 9 16 10 18 10 44 0z m-88 -73 c-3 -7 -5 -2 -5 12 0 14 2 19 5
13 2 -7 2 -19 0 -25z m-47 12 c0 -5 -4 -10 -10 -10 -5 0 -10 5 -10 10 0 6 5
10 10 10 6 0 10 -4 10 -10z"/>
<path d="M160 210 c0 -5 5 -10 10 -10 6 0 10 5 10 10 0 6 -4 10 -10 10 -5 0
-10 -4 -10 -10z"/>
<path d="M200 211 c0 -6 5 -13 10 -16 6 -3 10 1 10 9 0 9 -4 16 -10 16 -5 0
-10 -4 -10 -9z"/>
<path d="M143 3 c9 -2 25 -2 35 0 9 3 1 5 -18 5 -19 0 -27 -2 -17 -5z"/>
</g>
</svg>
